# Blender v2.69 (sub 0) OBJ File: ''
# www.blender.org
mtllib untitled.mtl
o Kugel.001
v 0.653281 -0.707107 -0.270598
v 0.707107 -0.707107 -0.000000
v 0.382683 -0.923880 -0.000000
v 0.500000 -0.707107 -0.500000
v 0.353553 -0.923880 -0.146447
v 0.270598 -0.707107 -0.653281
v 0.270598 -0.923880 -0.270598
v 0.000000 -0.707107 -0.707107
v 0.146447 -0.923880 -0.353553
v -0.270598 -0.707107 -0.653281
v 0.000000 -0.923880 -0.382683
v -0.500000 -0.707107 -0.500000
v -0.146447 -0.923880 -0.353553
v -0.653281 -0.707107 -0.270598
v -0.270598 -0.923880 -0.270598
v -0.707107 -0.707107 -0.000000
v -0.353553 -0.923880 -0.146447
v -0.653281 -0.707107 0.270598
v -0.382683 -0.923880 -0.000000
v -0.500000 -0.707107 0.500000
v -0.353553 -0.923880 0.146447
v -0.270598 -0.707107 0.653281
v -0.270598 -0.923880 0.270598
v 0.000000 -0.707107 0.707107
v -0.146447 -0.923880 0.353553
v 0.270598 -0.707107 0.653281
v 0.000000 -0.923880 0.382683
v 0.500000 -0.707107 0.500000
v 0.146447 -0.923880 0.353553
v 0.653281 -0.707107 0.270598
v 0.270598 -0.923880 0.270598
v 0.353553 -0.923880 0.146447
v 0.853553 -0.382683 -0.353553
v 0.923880 -0.382683 -0.000000
v 0.653281 -0.382683 -0.653281
v 0.353553 -0.382683 -0.853553
v 0.000000 -0.382683 -0.923880
v -0.353553 -0.382683 -0.853553
v -0.653281 -0.382683 -0.653281
v -0.853553 -0.382683 -0.353553
v -0.923880 -0.382683 -0.000000
v -0.853553 -0.382683 0.353553
v -0.653281 -0.382683 0.653281
v -0.353553 -0.382683 0.853553
v 0.000000 -0.382683 0.923880
v 0.353553 -0.382683 0.853553
v 0.653281 -0.382683 0.653281
v 0.853553 -0.382683 0.353553
v 0.923880 0.000000 -0.382683
v 1.000000 0.000000 0.000000
v 0.707107 0.000000 -0.707107
v 0.382683 0.000000 -0.923880
v 0.000000 0.000000 -1.000000
v -0.382683 0.000000 -0.923880
v -0.707107 0.000000 -0.707107
v -0.923880 0.000000 -0.382683
v -1.000000 0.000000 0.000000
v -0.923880 -0.000000 0.382683
v -0.707107 -0.000000 0.707107
v -0.382683 -0.000000 0.923880
v 0.000000 -0.000000 1.000000
v 0.382683 -0.000000 0.923880
v 0.707107 -0.000000 0.707107
v 0.923880 -0.000000 0.382683
v 0.853553 0.382683 -0.353553
v 0.923880 0.382683 0.000000
v 0.653281 0.382683 -0.653281
v 0.353553 0.382683 -0.853553
v 0.000000 0.382683 -0.923880
v -0.353553 0.382683 -0.853553
v -0.653281 0.382683 -0.653281
v -0.853553 0.382683 -0.353553
v -0.923880 0.382683 0.000000
v -0.853553 0.382683 0.353553
v -0.653281 0.382683 0.653281
v -0.353553 0.382683 0.853553
v 0.000000 0.382683 0.923880
v 0.353553 0.382683 0.853553
v 0.653281 0.382683 0.653281
v 0.853553 0.382683 0.353553
v 0.653281 0.707107 -0.270598
v 0.707107 0.707107 0.000000
v 0.500000 0.707107 -0.500000
v 0.270598 0.707107 -0.653281
v 0.000000 0.707107 -0.707107
v -0.270598 0.707107 -0.653281
v -0.500000 0.707107 -0.500000
v -0.653281 0.707107 -0.270598
v -0.707107 0.707107 0.000000
v -0.653281 0.707107 0.270598
v -0.500000 0.707107 0.500000
v -0.270598 0.707107 0.653281
v 0.000000 0.707107 0.707107
v 0.270598 0.707107 0.653281
v 0.500000 0.707107 0.500000
v 0.653281 0.707107 0.270598
v 0.353553 0.923880 -0.146447
v 0.382683 0.923880 0.000000
v 0.270598 0.923880 -0.270598
v 0.146447 0.923880 -0.353553
v 0.000000 0.923880 -0.382683
v -0.146447 0.923880 -0.353553
v -0.270598 0.923880 -0.270598
v -0.353553 0.923880 -0.146447
v -0.382683 0.923880 0.000000
v -0.353553 0.923880 0.146447
v -0.270598 0.923880 0.270598
v -0.146447 0.923880 0.353553
v 0.000000 0.923880 0.382683
v 0.146447 0.923880 0.353553
v 0.270598 0.923880 0.270598
v 0.353553 0.923880 0.146447
v 0.000000 -1.000000 -0.000000
v 0.000000 1.000000 0.000000
vt 0.062500 0.250000
vt 0.000000 0.250000
vt 0.000000 0.125000
vt 0.125000 0.250000
vt 0.062500 0.125000
vt 0.187500 0.250000
vt 0.125000 0.125000
vt 0.250000 0.250000
vt 0.187500 0.125000
vt 0.312500 0.250000
vt 0.250000 0.125000
vt 0.375000 0.250000
vt 0.312500 0.125000
vt 0.437500 0.250000
vt 0.375000 0.125000
vt 0.500000 0.250000
vt 0.437500 0.125000
vt 0.562500 0.250000
vt 0.500000 0.125000
vt 0.625000 0.250000
vt 0.562500 0.125000
vt 0.687500 0.250000
vt 0.625000 0.125000
vt 0.750000 0.250000
vt 0.687500 0.125000
vt 0.812500 0.250000
vt 0.750000 0.125000
vt 0.875000 0.250000
vt 0.812500 0.125000
vt 0.937500 0.250000
vt 0.875000 0.125000
vt 1.000000 0.250000
vt 0.937500 0.125000
vt 0.062500 0.375000
vt 0.000000 0.375000
vt 0.125000 0.375000
vt 0.187500 0.375000
vt 0.250000 0.375000
vt 0.312500 0.375000
vt 0.375000 0.375000
vt 0.437500 0.375000
vt 0.500000 0.375000
vt 0.562500 0.375000
vt 0.625000 0.375000
vt 0.687500 0.375000
vt 0.750000 0.375000
vt 0.812500 0.375000
vt 0.875000 0.375000
vt 0.937500 0.375000
vt 1.000000 0.375000
vt 0.062500 0.500000
vt 0.000000 0.500000
vt 0.125000 0.500000
vt 0.187500 0.500000
vt 0.250000 0.500000
vt 0.312500 0.500000
vt 0.375000 0.500000
vt 0.437500 0.500000
vt 0.500000 0.500000
vt 0.562500 0.500000
vt 0.625000 0.500000
vt 0.687500 0.500000
vt 0.750000 0.500000
vt 0.812500 0.500000
vt 0.875000 0.500000
vt 0.937500 0.500000
vt 1.000000 0.500000
vt 0.062500 0.625000
vt 0.000000 0.625000
vt 0.125000 0.625000
vt 0.187500 0.625000
vt 0.250000 0.625000
vt 0.312500 0.625000
vt 0.375000 0.625000
vt 0.437500 0.625000
vt 0.500000 0.625000
vt 0.562500 0.625000
vt 0.625000 0.625000
vt 0.687500 0.625000
vt 0.750000 0.625000
vt 0.812500 0.625000
vt 0.875000 0.625000
vt 0.937500 0.625000
vt 1.000000 0.625000
vt 0.062500 0.750000
vt 0.000000 0.750000
vt 0.125000 0.750000
vt 0.187500 0.750000
vt 0.250000 0.750000
vt 0.312500 0.750000
vt 0.375000 0.750000
vt 0.437500 0.750000
vt 0.500000 0.750000
vt 0.562500 0.750000
vt 0.625000 0.750000
vt 0.687500 0.750000
vt 0.750000 0.750000
vt 0.812500 0.750000
vt 0.875000 0.750000
vt 0.937500 0.750000
vt 1.000000 0.750000
vt 0.062500 0.875000
vt 0.000000 0.875000
vt 0.125000 0.875000
vt 0.187500 0.875000
vt 0.250000 0.875000
vt 0.312500 0.875000
vt 0.375000 0.875000
vt 0.437500 0.875000
vt 0.500000 0.875000
vt 0.562500 0.875000
vt 0.625000 0.875000
vt 0.687500 0.875000
vt 0.750000 0.875000
vt 0.812500 0.875000
vt 0.875000 0.875000
vt 0.937500 0.875000
vt 1.000000 0.875000
vt 0.000000 0.000000
vt 0.000000 1.000000
vt 0.062500 0.000000
vt 0.062500 1.000000
vt 0.125000 0.000000
vt 0.125000 1.000000
vt 0.187500 0.000000
vt 0.187500 1.000000
vt 0.250000 0.000000
vt 0.250000 1.000000
vt 0.312500 0.000000
vt 0.312500 1.000000
vt 0.375000 0.000000
vt 0.375000 1.000000
vt 0.437500 0.000000
vt 0.437500 1.000000
vt 0.500000 0.000000
vt 0.500000 1.000000
vt 0.562500 0.000000
vt 0.562500 1.000000
vt 0.625000 0.000000
vt 0.625000 1.000000
vt 0.687500 0.000000
vt 0.687500 1.000000
vt 0.750000 0.000000
vt 0.750000 1.000000
vt 0.812500 0.000000
vt 0.812500 1.000000
vt 0.875000 0.000000
vt 0.875000 1.000000
vt 1.000000 0.125000
vt 0.937500 0.000000
vt 0.937500 1.000000
vn 0.552208 -0.826439 -0.109843
vn 0.468141 -0.826438 -0.312801
vn 0.312800 -0.826438 -0.468141
vn 0.109843 -0.826438 -0.552209
vn -0.109843 -0.826439 -0.552208
vn -0.312800 -0.826438 -0.468141
vn -0.468141 -0.826438 -0.312801
vn -0.552209 -0.826438 -0.109843
vn -0.552208 -0.826439 0.109842
vn -0.468141 -0.826438 0.312800
vn -0.312801 -0.826438 0.468141
vn -0.109843 -0.826438 0.552209
vn 0.109842 -0.826439 0.552208
vn 0.312801 -0.826438 0.468141
vn 0.468141 -0.826438 0.312801
vn 0.552209 -0.826438 0.109843
vn 0.820326 -0.548123 -0.163175
vn 0.695439 -0.548123 -0.464678
vn 0.464678 -0.548122 -0.695440
vn 0.163175 -0.548124 -0.820326
vn -0.163175 -0.548123 -0.820326
vn -0.464678 -0.548123 -0.695439
vn -0.695440 -0.548122 -0.464678
vn -0.820326 -0.548123 -0.163175
vn -0.820326 -0.548123 0.163175
vn -0.695439 -0.548123 0.464678
vn -0.464678 -0.548122 0.695439
vn -0.163175 -0.548124 0.820326
vn 0.163175 -0.548124 0.820326
vn 0.464678 -0.548123 0.695439
vn 0.695440 -0.548122 0.464678
vn 0.820326 -0.548123 0.163175
vn 0.962638 -0.191479 -0.191480
vn 0.816084 -0.191482 -0.545290
vn 0.545290 -0.191483 -0.816084
vn 0.191480 -0.191482 -0.962637
vn -0.191480 -0.191479 -0.962638
vn -0.545289 -0.191482 -0.816085
vn -0.816084 -0.191483 -0.545289
vn -0.962637 -0.191482 -0.191480
vn -0.962638 -0.191479 0.191480
vn -0.816084 -0.191482 0.545290
vn -0.545289 -0.191483 0.816084
vn -0.191480 -0.191483 0.962637
vn 0.191479 -0.191480 0.962638
vn 0.545290 -0.191482 0.816084
vn 0.816084 -0.191483 0.545290
vn 0.962637 -0.191483 0.191479
vn 0.962637 0.191480 -0.191483
vn 0.816084 0.191482 -0.545290
vn 0.545290 0.191483 -0.816084
vn 0.191483 0.191483 -0.962636
vn -0.191483 0.191480 -0.962637
vn -0.545290 0.191482 -0.816084
vn -0.816084 0.191483 -0.545290
vn -0.962636 0.191483 -0.191483
vn -0.962637 0.191480 0.191483
vn -0.816084 0.191482 0.545291
vn -0.545290 0.191483 0.816084
vn -0.191483 0.191483 0.962636
vn 0.191483 0.191479 0.962637
vn 0.545290 0.191482 0.816084
vn 0.816084 0.191483 0.545290
vn 0.962636 0.191483 0.191483
vn 0.820326 0.548123 -0.163175
vn 0.695440 0.548123 -0.464676
vn 0.464677 0.548122 -0.695440
vn 0.163175 0.548124 -0.820326
vn -0.163175 0.548124 -0.820326
vn -0.464677 0.548123 -0.695440
vn -0.695440 0.548122 -0.464677
vn -0.820326 0.548123 -0.163175
vn -0.820326 0.548123 0.163175
vn -0.695440 0.548123 0.464676
vn -0.464677 0.548122 0.695441
vn -0.163175 0.548124 0.820326
vn 0.163176 0.548123 0.820326
vn 0.464676 0.548123 0.695440
vn 0.695441 0.548122 0.464677
vn 0.820326 0.548124 0.163175
vn 0.552208 0.826439 -0.109840
vn 0.468141 0.826438 -0.312800
vn 0.312801 0.826439 -0.468140
vn 0.109841 0.826438 -0.552209
vn -0.109840 0.826439 -0.552208
vn -0.312801 0.826438 -0.468140
vn -0.468140 0.826438 -0.312800
vn -0.552209 0.826438 -0.109841
vn -0.552208 0.826439 0.109840
vn -0.468140 0.826438 0.312801
vn -0.312801 0.826438 0.468140
vn -0.109841 0.826438 0.552209
vn 0.109841 0.826439 0.552208
vn 0.312802 0.826438 0.468141
vn 0.468140 0.826438 0.312801
vn 0.552209 0.826438 0.109841
vn 0.194943 -0.980048 -0.038776
vn 0.194943 0.980048 -0.038776
vn 0.165264 -0.980048 -0.110427
vn 0.165265 0.980048 -0.110425
vn 0.110426 -0.980048 -0.165264
vn 0.110426 0.980048 -0.165265
vn 0.038776 -0.980048 -0.194943
vn 0.038776 0.980048 -0.194943
vn -0.038776 -0.980048 -0.194943
vn -0.038776 0.980048 -0.194943
vn -0.110426 -0.980048 -0.165264
vn -0.110426 0.980048 -0.165265
vn -0.165264 -0.980048 -0.110427
vn -0.165265 0.980048 -0.110425
vn -0.194943 -0.980048 -0.038776
vn -0.194943 0.980048 -0.038776
vn -0.194943 -0.980048 0.038776
vn -0.194943 0.980048 0.038776
vn -0.165264 -0.980048 0.110426
vn -0.165264 0.980048 0.110426
vn -0.110426 -0.980048 0.165264
vn -0.110426 0.980048 0.165265
vn -0.038776 -0.980048 0.194943
vn -0.038776 0.980048 0.194943
vn 0.038776 -0.980048 0.194943
vn 0.038776 0.980048 0.194943
vn 0.110426 -0.980048 0.165265
vn 0.110426 0.980048 0.165265
vn 0.165264 -0.980048 0.110426
vn 0.165264 0.980048 0.110426
vn 0.194943 -0.980048 0.038776
vn 0.194943 0.980048 0.038776
vn 0.552209 -0.826438 -0.109841
vn 0.468140 -0.826438 -0.312801
vn 0.312802 -0.826438 -0.468141
vn 0.109841 -0.826439 -0.552208
vn -0.109841 -0.826438 -0.552209
vn -0.312801 -0.826438 -0.468140
vn -0.468140 -0.826438 -0.312802
vn -0.552208 -0.826439 -0.109840
vn -0.552209 -0.826438 0.109841
vn -0.468140 -0.826438 0.312800
vn -0.312801 -0.826438 0.468140
vn -0.109840 -0.826439 0.552208
vn 0.109841 -0.826438 0.552209
vn 0.312801 -0.826438 0.468140
vn 0.468141 -0.826438 0.312800
vn 0.552208 -0.826439 0.109840
vn 0.695441 -0.548122 -0.464677
vn 0.464676 -0.548123 -0.695440
vn 0.163176 -0.548123 -0.820326
vn -0.464677 -0.548122 -0.695441
vn -0.695440 -0.548123 -0.464676
vn -0.695440 -0.548122 0.464677
vn -0.464677 -0.548124 0.695440
vn 0.464677 -0.548122 0.695440
vn 0.695440 -0.548124 0.464676
vn 0.962636 -0.191483 -0.191483
vn 0.816084 -0.191483 -0.545290
vn 0.545290 -0.191482 -0.816084
vn 0.191483 -0.191479 -0.962637
vn -0.191483 -0.191483 -0.962636
vn -0.545290 -0.191483 -0.816084
vn -0.816084 -0.191482 -0.545290
vn -0.962637 -0.191480 -0.191483
vn -0.962636 -0.191483 0.191483
vn -0.816084 -0.191483 0.545290
vn -0.545290 -0.191482 0.816084
vn -0.191483 -0.191480 0.962637
vn 0.191483 -0.191483 0.962636
vn 0.545290 -0.191483 0.816084
vn 0.816084 -0.191482 0.545290
vn 0.962637 -0.191480 0.191483
vn 0.962637 0.191482 -0.191479
vn 0.816084 0.191483 -0.545290
vn 0.545290 0.191482 -0.816084
vn 0.191479 0.191480 -0.962638
vn -0.191480 0.191483 -0.962637
vn -0.545289 0.191483 -0.816084
vn -0.816084 0.191482 -0.545290
vn -0.962638 0.191479 -0.191480
vn -0.962637 0.191482 0.191480
vn -0.816084 0.191483 0.545289
vn -0.545289 0.191482 0.816084
vn -0.191480 0.191479 0.962638
vn 0.191480 0.191482 0.962637
vn 0.545290 0.191483 0.816084
vn 0.816084 0.191482 0.545290
vn 0.962638 0.191479 0.191480
vn 0.695440 0.548122 -0.464678
vn 0.464678 0.548124 -0.695439
vn -0.464678 0.548122 -0.695439
vn -0.695439 0.548123 -0.464678
vn -0.695440 0.548122 0.464678
vn -0.464678 0.548123 0.695439
vn -0.163175 0.548123 0.820326
vn 0.163175 0.548123 0.820326
vn 0.464678 0.548122 0.695440
vn 0.695439 0.548123 0.464678
vn 0.552209 0.826438 -0.109843
vn 0.468141 0.826438 -0.312801
vn 0.312801 0.826438 -0.468141
vn 0.109842 0.826439 -0.552208
vn -0.109843 0.826438 -0.552209
vn -0.312801 0.826438 -0.468141
vn -0.468141 0.826438 -0.312800
vn -0.552208 0.826439 -0.109842
vn -0.552209 0.826438 0.109843
vn -0.468141 0.826438 0.312800
vn -0.312800 0.826438 0.468141
vn -0.109843 0.826439 0.552208
vn 0.109843 0.826438 0.552209
vn 0.312800 0.826438 0.468141
vn 0.468141 0.826438 0.312801
vn 0.552208 0.826439 0.109843
usemtl None
s off
f 1/1/1 2/2/1 3/3/1
f 4/4/2 1/1/2 5/5/2
f 6/6/3 4/4/3 7/7/3
f 8/8/4 6/6/4 9/9/4
f 10/10/5 8/8/5 11/11/5
f 12/12/6 10/10/6 13/13/6
f 14/14/7 12/12/7 15/15/7
f 16/16/8 14/14/8 17/17/8
f 18/18/9 16/16/9 19/19/9
f 20/20/10 18/18/10 21/21/10
f 22/22/11 20/20/11 23/23/11
f 24/24/12 22/22/12 25/25/12
f 26/26/13 24/24/13 27/27/13
f 28/28/14 26/26/14 29/29/14
f 30/30/15 28/28/15 31/31/15
f 2/32/16 30/30/16 32/33/16
f 33/34/17 34/35/17 2/2/17
f 33/34/18 1/1/18 35/36/18
f 36/37/19 35/36/19 4/4/19
f 37/38/20 36/37/20 6/6/20
f 38/39/21 37/38/21 8/8/21
f 39/40/22 38/39/22 10/10/22
f 40/41/23 39/40/23 12/12/23
f 41/42/24 40/41/24 14/14/24
f 42/43/25 41/42/25 16/16/25
f 43/44/26 42/43/26 18/18/26
f 44/45/27 43/44/27 20/20/27
f 45/46/28 44/45/28 22/22/28
f 46/47/29 45/46/29 24/24/29
f 47/48/30 46/47/30 26/26/30
f 48/49/31 47/48/31 28/28/31
f 34/50/32 48/49/32 30/30/32
f 49/51/33 50/52/33 34/35/33
f 51/53/34 49/51/34 33/34/34
f 52/54/35 51/53/35 35/36/35
f 53/55/36 52/54/36 36/37/36
f 54/56/37 53/55/37 37/38/37
f 55/57/38 54/56/38 38/39/38
f 56/58/39 55/57/39 39/40/39
f 57/59/40 56/58/40 40/41/40
f 58/60/41 57/59/41 41/42/41
f 59/61/42 58/60/42 42/43/42
f 60/62/43 59/61/43 43/44/43
f 61/63/44 60/62/44 44/45/44
f 62/64/45 61/63/45 45/46/45
f 63/65/46 62/64/46 46/47/46
f 64/66/47 63/65/47 47/48/47
f 50/67/48 64/66/48 48/49/48
f 65/68/49 66/69/49 50/52/49
f 67/70/50 65/68/50 49/51/50
f 68/71/51 67/70/51 51/53/51
f 69/72/52 68/71/52 52/54/52
f 70/73/53 69/72/53 53/55/53
f 71/74/54 70/73/54 54/56/54
f 72/75/55 71/74/55 55/57/55
f 73/76/56 72/75/56 56/58/56
f 74/77/57 73/76/57 57/59/57
f 75/78/58 74/77/58 58/60/58
f 76/79/59 75/78/59 59/61/59
f 77/80/60 76/79/60 60/62/60
f 78/81/61 77/80/61 61/63/61
f 79/82/62 78/81/62 62/64/62
f 80/83/63 79/82/63 63/65/63
f 66/84/64 80/83/64 64/66/64
f 81/85/65 82/86/65 66/69/65
f 83/87/66 81/85/66 65/68/66
f 84/88/67 83/87/67 67/70/67
f 85/89/68 84/88/68 68/71/68
f 86/90/69 85/89/69 69/72/69
f 87/91/70 86/90/70 70/73/70
f 88/92/71 87/91/71 71/74/71
f 89/93/72 88/92/72 72/75/72
f 90/94/73 89/93/73 73/76/73
f 91/95/74 90/94/74 74/77/74
f 92/96/75 91/95/75 75/78/75
f 93/97/76 92/96/76 76/79/76
f 94/98/77 93/97/77 77/80/77
f 95/99/78 94/98/78 78/81/78
f 96/100/79 95/99/79 79/82/79
f 82/101/80 96/100/80 80/83/80
f 97/102/81 98/103/81 82/86/81
f 99/104/82 97/102/82 81/85/82
f 100/105/83 99/104/83 83/87/83
f 101/106/84 100/105/84 84/88/84
f 102/107/85 101/106/85 85/89/85
f 103/108/86 102/107/86 86/90/86
f 104/109/87 103/108/87 87/91/87
f 105/110/88 104/109/88 88/92/88
f 106/111/89 105/110/89 89/93/89
f 107/112/90 106/111/90 90/94/90
f 108/113/91 107/112/91 91/95/91
f 109/114/92 108/113/92 92/96/92
f 110/115/93 109/114/93 93/97/93
f 111/116/94 110/115/94 94/98/94
f 112/117/95 111/116/95 95/99/95
f 98/118/96 112/117/96 96/100/96
f 5/5/97 3/3/97 113/119/97
f 114/120/98 98/103/98 97/102/98
f 7/7/99 5/5/99 113/121/99
f 114/122/100 97/102/100 99/104/100
f 9/9/101 7/7/101 113/123/101
f 114/124/102 99/104/102 100/105/102
f 11/11/103 9/9/103 113/125/103
f 114/126/104 100/105/104 101/106/104
f 13/13/105 11/11/105 113/127/105
f 114/128/106 101/106/106 102/107/106
f 15/15/107 13/13/107 113/129/107
f 114/130/108 102/107/108 103/108/108
f 17/17/109 15/15/109 113/131/109
f 114/132/110 103/108/110 104/109/110
f 19/19/111 17/17/111 113/133/111
f 114/134/112 104/109/112 105/110/112
f 21/21/113 19/19/113 113/135/113
f 114/136/114 105/110/114 106/111/114
f 23/23/115 21/21/115 113/137/115
f 114/138/116 106/111/116 107/112/116
f 25/25/117 23/23/117 113/139/117
f 114/140/118 107/112/118 108/113/118
f 27/27/119 25/25/119 113/141/119
f 114/142/120 108/113/120 109/114/120
f 29/29/121 27/27/121 113/143/121
f 114/144/122 109/114/122 110/115/122
f 31/31/123 29/29/123 113/145/123
f 114/146/124 110/115/124 111/116/124
f 32/33/125 31/31/125 113/147/125
f 114/148/126 111/116/126 112/117/126
f 3/149/127 32/33/127 113/150/127
f 114/151/128 112/117/128 98/118/128
f 5/5/129 1/1/129 3/3/129
f 7/7/130 4/4/130 5/5/130
f 9/9/131 6/6/131 7/7/131
f 11/11/132 8/8/132 9/9/132
f 13/13/133 10/10/133 11/11/133
f 15/15/134 12/12/134 13/13/134
f 17/17/135 14/14/135 15/15/135
f 19/19/136 16/16/136 17/17/136
f 21/21/137 18/18/137 19/19/137
f 23/23/138 20/20/138 21/21/138
f 25/25/139 22/22/139 23/23/139
f 27/27/140 24/24/140 25/25/140
f 29/29/141 26/26/141 27/27/141
f 31/31/142 28/28/142 29/29/142
f 32/33/143 30/30/143 31/31/143
f 3/149/144 2/32/144 32/33/144
f 1/1/17 33/34/17 2/2/17
f 35/36/145 1/1/145 4/4/145
f 6/6/146 36/37/146 4/4/146
f 8/8/147 37/38/147 6/6/147
f 10/10/21 38/39/21 8/8/21
f 12/12/148 39/40/148 10/10/148
f 14/14/149 40/41/149 12/12/149
f 16/16/24 41/42/24 14/14/24
f 18/18/25 42/43/25 16/16/25
f 20/20/150 43/44/150 18/18/150
f 22/22/151 44/45/151 20/20/151
f 24/24/28 45/46/28 22/22/28
f 26/26/29 46/47/29 24/24/29
f 28/28/152 47/48/152 26/26/152
f 30/30/153 48/49/153 28/28/153
f 2/32/32 34/50/32 30/30/32
f 33/34/154 49/51/154 34/35/154
f 35/36/155 51/53/155 33/34/155
f 36/37/156 52/54/156 35/36/156
f 37/38/157 53/55/157 36/37/157
f 38/39/158 54/56/158 37/38/158
f 39/40/159 55/57/159 38/39/159
f 40/41/160 56/58/160 39/40/160
f 41/42/161 57/59/161 40/41/161
f 42/43/162 58/60/162 41/42/162
f 43/44/163 59/61/163 42/43/163
f 44/45/164 60/62/164 43/44/164
f 45/46/165 61/63/165 44/45/165
f 46/47/166 62/64/166 45/46/166
f 47/48/167 63/65/167 46/47/167
f 48/49/168 64/66/168 47/48/168
f 34/50/169 50/67/169 48/49/169
f 49/51/170 65/68/170 50/52/170
f 51/53/171 67/70/171 49/51/171
f 52/54/172 68/71/172 51/53/172
f 53/55/173 69/72/173 52/54/173
f 54/56/174 70/73/174 53/55/174
f 55/57/175 71/74/175 54/56/175
f 56/58/176 72/75/176 55/57/176
f 57/59/177 73/76/177 56/58/177
f 58/60/178 74/77/178 57/59/178
f 59/61/179 75/78/179 58/60/179
f 60/62/180 76/79/180 59/61/180
f 61/63/181 77/80/181 60/62/181
f 62/64/182 78/81/182 61/63/182
f 63/65/183 79/82/183 62/64/183
f 64/66/184 80/83/184 63/65/184
f 50/67/185 66/84/185 64/66/185
f 65/68/65 81/85/65 66/69/65
f 67/70/186 83/87/186 65/68/186
f 68/71/187 84/88/187 67/70/187
f 69/72/68 85/89/68 68/71/68
f 70/73/69 86/90/69 69/72/69
f 71/74/188 87/91/188 70/73/188
f 72/75/189 88/92/189 71/74/189
f 73/76/72 89/93/72 72/75/72
f 74/77/73 90/94/73 73/76/73
f 75/78/190 91/95/190 74/77/190
f 76/79/191 92/96/191 75/78/191
f 77/80/192 93/97/192 76/79/192
f 78/81/193 94/98/193 77/80/193
f 79/82/194 95/99/194 78/81/194
f 80/83/195 96/100/195 79/82/195
f 66/84/80 82/101/80 80/83/80
f 81/85/196 97/102/196 82/86/196
f 83/87/197 99/104/197 81/85/197
f 84/88/198 100/105/198 83/87/198
f 85/89/199 101/106/199 84/88/199
f 86/90/200 102/107/200 85/89/200
f 87/91/201 103/108/201 86/90/201
f 88/92/202 104/109/202 87/91/202
f 89/93/203 105/110/203 88/92/203
f 90/94/204 106/111/204 89/93/204
f 91/95/205 107/112/205 90/94/205
f 92/96/206 108/113/206 91/95/206
f 93/97/207 109/114/207 92/96/207
f 94/98/208 110/115/208 93/97/208
f 95/99/209 111/116/209 94/98/209
f 96/100/210 112/117/210 95/99/210
f 82/101/211 98/118/211 96/100/211
